<mxfile host="app.diagrams.net" agent="Mozilla/5.0 (Windows NT 10.0; Win64; x64) AppleWebKit/537.36 (KHTML, like Gecko) Chrome/134.0.0.0 Safari/537.36" version="26.1.0">
  <diagram name="Page-1" id="8G-j4KUfpTVjV4SQbZC3">
    <mxGraphModel grid="1" page="1" gridSize="10" guides="1" tooltips="1" connect="1" arrows="1" fold="1" pageScale="1" pageWidth="850" pageHeight="1100" math="0" shadow="0">
      <root>
        <mxCell id="0" />
        <mxCell id="1" parent="0" />
        <mxCell id="9_ur9y1mSe7lT-CGNOKJ-1" value="Patient" style="rounded=0;whiteSpace=wrap;html=1;" vertex="1" parent="1">
          <mxGeometry x="660" y="690" width="80" height="30" as="geometry" />
        </mxCell>
        <mxCell id="9_ur9y1mSe7lT-CGNOKJ-5" value="Pname" style="ellipse;whiteSpace=wrap;html=1;" vertex="1" parent="1">
          <mxGeometry x="630" y="620" width="60" height="30" as="geometry" />
        </mxCell>
        <mxCell id="9_ur9y1mSe7lT-CGNOKJ-6" value="DOB" style="ellipse;whiteSpace=wrap;html=1;" vertex="1" parent="1">
          <mxGeometry x="710" y="620" width="60" height="30" as="geometry" />
        </mxCell>
        <mxCell id="9_ur9y1mSe7lT-CGNOKJ-8" value="gender" style="ellipse;whiteSpace=wrap;html=1;" vertex="1" parent="1">
          <mxGeometry x="550" y="680" width="60" height="30" as="geometry" />
        </mxCell>
        <mxCell id="9_ur9y1mSe7lT-CGNOKJ-9" value="Insurance Information" style="ellipse;whiteSpace=wrap;html=1;" vertex="1" parent="1">
          <mxGeometry x="790" y="610" width="80" height="40" as="geometry" />
        </mxCell>
        <mxCell id="9_ur9y1mSe7lT-CGNOKJ-10" value="Address" style="ellipse;whiteSpace=wrap;html=1;" vertex="1" parent="1">
          <mxGeometry x="790" y="680" width="60" height="30" as="geometry" />
        </mxCell>
        <mxCell id="9_ur9y1mSe7lT-CGNOKJ-31" value="Doctor" style="rounded=0;whiteSpace=wrap;html=1;" vertex="1" parent="1">
          <mxGeometry x="1150" y="1015" width="80" height="40" as="geometry" />
        </mxCell>
        <mxCell id="9_ur9y1mSe7lT-CGNOKJ-34" value="Dname" style="ellipse;whiteSpace=wrap;html=1;" vertex="1" parent="1">
          <mxGeometry x="1125" y="1090" width="90" height="30" as="geometry" />
        </mxCell>
        <mxCell id="9_ur9y1mSe7lT-CGNOKJ-36" value="Specialization" style="ellipse;whiteSpace=wrap;html=1;" vertex="1" parent="1">
          <mxGeometry x="1230" y="1090" width="90" height="30" as="geometry" />
        </mxCell>
        <mxCell id="9_ur9y1mSe7lT-CGNOKJ-37" value="Phone" style="ellipse;whiteSpace=wrap;html=1;" vertex="1" parent="1">
          <mxGeometry x="1270" y="1040" width="90" height="30" as="geometry" />
        </mxCell>
        <mxCell id="9_ur9y1mSe7lT-CGNOKJ-45" value="&lt;span style=&quot;color: rgba(0, 0, 0, 0); font-family: monospace; font-size: 0px; text-align: start;&quot;&gt;%3CmxGraphModel%3E%3Croot%3E%3CmxCell%20id%3D%220%22%2F%3E%3CmxCell%20id%3D%221%22%20parent%3D%220%22%2F%3E%3CmxCell%20id%3D%222%22%20value%3D%22%22%20style%3D%22edgeStyle%3DorthogonalEdgeStyle%3Brounded%3D0%3BorthogonalLoop%3D1%3BjettySize%3Dauto%3Bhtml%3D1%3B%22%20edge%3D%221%22%20source%3D%226%22%20target%3D%229%22%20parent%3D%221%22%3E%3CmxGeometry%20relative%3D%221%22%20as%3D%22geometry%22%2F%3E%3C%2FmxCell%3E%3CmxCell%20id%3D%223%22%20value%3D%22%22%20style%3D%22edgeStyle%3DorthogonalEdgeStyle%3Brounded%3D0%3BorthogonalLoop%3D1%3BjettySize%3Dauto%3Bhtml%3D1%3B%22%20edge%3D%221%22%20source%3D%226%22%20parent%3D%221%22%3E%3CmxGeometry%20relative%3D%221%22%20as%3D%22geometry%22%3E%3CmxPoint%20x%3D%22450%22%20y%3D%22395%22%20as%3D%22targetPoint%22%2F%3E%3C%2FmxGeometry%3E%3C%2FmxCell%3E%3CmxCell%20id%3D%224%22%20style%3D%22edgeStyle%3DorthogonalEdgeStyle%3Brounded%3D0%3BorthogonalLoop%3D1%3BjettySize%3Dauto%3Bhtml%3D1%3B%22%20edge%3D%221%22%20source%3D%226%22%20target%3D%227%22%20parent%3D%221%22%3E%3CmxGeometry%20relative%3D%221%22%20as%3D%22geometry%22%3E%3CArray%20as%3D%22points%22%3E%3CmxPoint%20x%3D%22270%22%20y%3D%22395%22%2F%3E%3CmxPoint%20x%3D%22270%22%20y%3D%22315%22%2F%3E%3C%2FArray%3E%3C%2FmxGeometry%3E%3C%2FmxCell%3E%3CmxCell%20id%3D%225%22%20value%3D%22%22%20style%3D%22edgeStyle%3DorthogonalEdgeStyle%3Brounded%3D0%3BorthogonalLoop%3D1%3BjettySize%3Dauto%3Bhtml%3D1%3B%22%20edge%3D%221%22%20source%3D%226%22%20target%3D%228%22%20parent%3D%221%22%3E%3CmxGeometry%20relative%3D%221%22%20as%3D%22geometry%22%2F%3E%3C%2FmxCell%3E%3CmxCell%20id%3D%226%22%20value%3D%22Doctor%22%20style%3D%22rounded%3D0%3BwhiteSpace%3Dwrap%3Bhtml%3D1%3B%22%20vertex%3D%221%22%20parent%3D%221%22%3E%3CmxGeometry%20x%3D%22290%22%20y%3D%22375%22%20width%3D%2280%22%20height%3D%2240%22%20as%3D%22geometry%22%2F%3E%3C%2FmxCell%3E%3CmxCell%20id%3D%227%22%20value%3D%22%26lt%3Bu%26gt%3BDid%26lt%3B%2Fu%26gt%3B%22%20style%3D%22ellipse%3BwhiteSpace%3Dwrap%3Bhtml%3D1%3B%22%20vertex%3D%221%22%20parent%3D%221%22%3E%3CmxGeometry%20x%3D%22160%22%20y%3D%22300%22%20width%3D%2290%22%20height%3D%2230%22%20as%3D%22geometry%22%2F%3E%3C%2FmxCell%3E%3CmxCell%20id%3D%228%22%20value%3D%22Dname%22%20style%3D%22ellipse%3BwhiteSpace%3Dwrap%3Bhtml%3D1%3B%22%20vertex%3D%221%22%20parent%3D%221%22%3E%3CmxGeometry%20x%3D%22290%22%20y%3D%22300%22%20width%3D%2290%22%20height%3D%2230%22%20as%3D%22geometry%22%2F%3E%3C%2FmxCell%3E%3CmxCell%20id%3D%229%22%20value%3D%22Email%22%20style%3D%22ellipse%3BwhiteSpace%3Dwrap%3Bhtml%3D1%3B%22%20vertex%3D%221%22%20parent%3D%221%22%3E%3CmxGeometry%20x%3D%22150%22%20y%3D%22375%22%20width%3D%2290%22%20height%3D%2230%22%20as%3D%22geometry%22%2F%3E%3C%2FmxCell%3E%3CmxCell%20id%3D%2210%22%20value%3D%22Phone%22%20style%3D%22ellipse%3BwhiteSpace%3Dwrap%3Bhtml%3D1%3B%22%20vertex%3D%221%22%20parent%3D%221%22%3E%3CmxGeometry%20x%3D%22450%22%20y%3D%22380%22%20width%3D%2290%22%20height%3D%2230%22%20as%3D%22geometry%22%2F%3E%3C%2FmxCell%3E%3C%2Froot%3E%3C%2FmxGraphModel%3E&lt;/span&gt;" style="text;html=1;align=center;verticalAlign=middle;resizable=0;points=[];autosize=1;strokeColor=none;fillColor=none;" vertex="1" parent="1">
          <mxGeometry x="1160" y="1003" width="20" height="30" as="geometry" />
        </mxCell>
        <mxCell id="9_ur9y1mSe7lT-CGNOKJ-54" value="Medical History" style="rounded=0;whiteSpace=wrap;html=1;" vertex="1" parent="1">
          <mxGeometry x="1007.5" y="690" width="90" height="30" as="geometry" />
        </mxCell>
        <mxCell id="9_ur9y1mSe7lT-CGNOKJ-55" value="&lt;u&gt;Did&lt;/u&gt;" style="ellipse;whiteSpace=wrap;html=1;" vertex="1" parent="1">
          <mxGeometry x="1030" y="1070" width="90" height="30" as="geometry" />
        </mxCell>
        <mxCell id="9_ur9y1mSe7lT-CGNOKJ-56" value="&lt;u&gt;Medical_ID&lt;/u&gt;" style="ellipse;whiteSpace=wrap;html=1;" vertex="1" parent="1">
          <mxGeometry x="900" y="660" width="85" height="40" as="geometry" />
        </mxCell>
        <mxCell id="9_ur9y1mSe7lT-CGNOKJ-57" value="&lt;u&gt;Pid&lt;/u&gt;" style="ellipse;whiteSpace=wrap;html=1;" vertex="1" parent="1">
          <mxGeometry x="550" y="630" width="70" height="30" as="geometry" />
        </mxCell>
        <mxCell id="9_ur9y1mSe7lT-CGNOKJ-58" value="Dignosis" style="ellipse;whiteSpace=wrap;html=1;" vertex="1" parent="1">
          <mxGeometry x="960" y="620" width="90" height="30" as="geometry" />
        </mxCell>
        <mxCell id="9_ur9y1mSe7lT-CGNOKJ-60" value="allergies" style="ellipse;whiteSpace=wrap;html=1;" vertex="1" parent="1">
          <mxGeometry x="1090" y="620" width="90" height="30" as="geometry" />
        </mxCell>
        <mxCell id="9_ur9y1mSe7lT-CGNOKJ-61" value="Medication" style="ellipse;whiteSpace=wrap;html=1;" vertex="1" parent="1">
          <mxGeometry x="1160" y="690" width="90" height="30" as="geometry" />
        </mxCell>
        <mxCell id="9_ur9y1mSe7lT-CGNOKJ-72" value="Prescription" style="rounded=0;whiteSpace=wrap;html=1;" vertex="1" parent="1">
          <mxGeometry x="734.9800000000001" y="1070" width="90" height="40" as="geometry" />
        </mxCell>
        <mxCell id="9_ur9y1mSe7lT-CGNOKJ-73" value="previous treatments" style="ellipse;whiteSpace=wrap;html=1;" vertex="1" parent="1">
          <mxGeometry x="1185" y="640" width="90" height="30" as="geometry" />
        </mxCell>
        <mxCell id="9_ur9y1mSe7lT-CGNOKJ-74" value="&lt;u&gt;Pre_id&lt;/u&gt;" style="ellipse;whiteSpace=wrap;html=1;" vertex="1" parent="1">
          <mxGeometry x="570.0000000000001" y="1080" width="90" height="30" as="geometry" />
        </mxCell>
        <mxCell id="9_ur9y1mSe7lT-CGNOKJ-76" value="prescription data" style="ellipse;whiteSpace=wrap;html=1;" vertex="1" parent="1">
          <mxGeometry x="690.0000000000001" y="1150" width="85" height="30" as="geometry" />
        </mxCell>
        <mxCell id="9_ur9y1mSe7lT-CGNOKJ-77" value="Medication&lt;div&gt;Name&lt;/div&gt;" style="ellipse;whiteSpace=wrap;html=1;" vertex="1" parent="1">
          <mxGeometry x="879.8900000000001" y="1070" width="85" height="35" as="geometry" />
        </mxCell>
        <mxCell id="9_ur9y1mSe7lT-CGNOKJ-78" value="Dosage" style="ellipse;whiteSpace=wrap;html=1;" vertex="1" parent="1">
          <mxGeometry x="874.8900000000001" y="1120" width="90" height="30" as="geometry" />
        </mxCell>
        <mxCell id="9_ur9y1mSe7lT-CGNOKJ-81" value="Dispensing&amp;nbsp;&lt;div&gt;Details&lt;/div&gt;" style="ellipse;whiteSpace=wrap;html=1;" vertex="1" parent="1">
          <mxGeometry x="780.0000000000001" y="1150" width="94.89" height="40" as="geometry" />
        </mxCell>
        <mxCell id="u0D0l31gaYsdRfmlkiBU-3" style="edgeStyle=orthogonalEdgeStyle;rounded=0;orthogonalLoop=1;jettySize=auto;html=1;exitX=0.5;exitY=1;exitDx=0;exitDy=0;" edge="1" parent="1" source="9_ur9y1mSe7lT-CGNOKJ-57" target="9_ur9y1mSe7lT-CGNOKJ-57">
          <mxGeometry relative="1" as="geometry" />
        </mxCell>
        <mxCell id="u0D0l31gaYsdRfmlkiBU-5" value="" style="endArrow=none;html=1;rounded=0;exitX=0.25;exitY=0;exitDx=0;exitDy=0;" edge="1" parent="1" source="9_ur9y1mSe7lT-CGNOKJ-1">
          <mxGeometry width="50" height="50" relative="1" as="geometry">
            <mxPoint x="680" y="680" as="sourcePoint" />
            <mxPoint x="673" y="650" as="targetPoint" />
          </mxGeometry>
        </mxCell>
        <mxCell id="u0D0l31gaYsdRfmlkiBU-7" value="" style="endArrow=none;html=1;rounded=0;exitX=0;exitY=0;exitDx=0;exitDy=0;entryX=0.942;entryY=0.73;entryDx=0;entryDy=0;entryPerimeter=0;" edge="1" parent="1" source="9_ur9y1mSe7lT-CGNOKJ-1" target="9_ur9y1mSe7lT-CGNOKJ-57">
          <mxGeometry width="50" height="50" relative="1" as="geometry">
            <mxPoint x="640" y="680" as="sourcePoint" />
            <mxPoint x="690" y="630" as="targetPoint" />
          </mxGeometry>
        </mxCell>
        <mxCell id="u0D0l31gaYsdRfmlkiBU-8" value="" style="endArrow=none;html=1;rounded=0;entryX=1;entryY=0.5;entryDx=0;entryDy=0;exitX=0;exitY=0.25;exitDx=0;exitDy=0;" edge="1" parent="1" source="9_ur9y1mSe7lT-CGNOKJ-1" target="9_ur9y1mSe7lT-CGNOKJ-8">
          <mxGeometry width="50" height="50" relative="1" as="geometry">
            <mxPoint x="640" y="680" as="sourcePoint" />
            <mxPoint x="690" y="630" as="targetPoint" />
          </mxGeometry>
        </mxCell>
        <mxCell id="u0D0l31gaYsdRfmlkiBU-9" value="" style="endArrow=none;html=1;rounded=0;exitX=0.75;exitY=0;exitDx=0;exitDy=0;entryX=0.341;entryY=0.942;entryDx=0;entryDy=0;entryPerimeter=0;" edge="1" parent="1" source="9_ur9y1mSe7lT-CGNOKJ-1" target="9_ur9y1mSe7lT-CGNOKJ-6">
          <mxGeometry width="50" height="50" relative="1" as="geometry">
            <mxPoint x="640" y="680" as="sourcePoint" />
            <mxPoint x="690" y="630" as="targetPoint" />
          </mxGeometry>
        </mxCell>
        <mxCell id="u0D0l31gaYsdRfmlkiBU-11" value="" style="endArrow=none;html=1;rounded=0;exitX=1;exitY=0.5;exitDx=0;exitDy=0;entryX=0;entryY=0.5;entryDx=0;entryDy=0;" edge="1" parent="1" source="9_ur9y1mSe7lT-CGNOKJ-1" target="9_ur9y1mSe7lT-CGNOKJ-10">
          <mxGeometry width="50" height="50" relative="1" as="geometry">
            <mxPoint x="730" y="740" as="sourcePoint" />
            <mxPoint x="780" y="690" as="targetPoint" />
          </mxGeometry>
        </mxCell>
        <mxCell id="u0D0l31gaYsdRfmlkiBU-12" value="" style="endArrow=none;html=1;rounded=0;entryX=0;entryY=1;entryDx=0;entryDy=0;exitX=1;exitY=0;exitDx=0;exitDy=0;" edge="1" parent="1" source="9_ur9y1mSe7lT-CGNOKJ-1" target="9_ur9y1mSe7lT-CGNOKJ-9">
          <mxGeometry width="50" height="50" relative="1" as="geometry">
            <mxPoint x="640" y="680" as="sourcePoint" />
            <mxPoint x="690" y="630" as="targetPoint" />
          </mxGeometry>
        </mxCell>
        <mxCell id="u0D0l31gaYsdRfmlkiBU-13" value="" style="endArrow=none;html=1;rounded=0;entryX=0;entryY=0.5;entryDx=0;entryDy=0;exitX=1;exitY=0.5;exitDx=0;exitDy=0;" edge="1" parent="1" source="9_ur9y1mSe7lT-CGNOKJ-54" target="9_ur9y1mSe7lT-CGNOKJ-73">
          <mxGeometry width="50" height="50" relative="1" as="geometry">
            <mxPoint x="1097.5" y="710" as="sourcePoint" />
            <mxPoint x="1147.5" y="660" as="targetPoint" />
          </mxGeometry>
        </mxCell>
        <mxCell id="u0D0l31gaYsdRfmlkiBU-14" value="" style="endArrow=none;html=1;rounded=0;entryX=0.404;entryY=1.056;entryDx=0;entryDy=0;entryPerimeter=0;" edge="1" parent="1" target="9_ur9y1mSe7lT-CGNOKJ-60">
          <mxGeometry width="50" height="50" relative="1" as="geometry">
            <mxPoint x="1090" y="690" as="sourcePoint" />
            <mxPoint x="1140" y="640" as="targetPoint" />
          </mxGeometry>
        </mxCell>
        <mxCell id="u0D0l31gaYsdRfmlkiBU-15" value="" style="endArrow=none;html=1;rounded=0;entryX=0.5;entryY=0;entryDx=0;entryDy=0;exitX=0.767;exitY=0.922;exitDx=0;exitDy=0;exitPerimeter=0;" edge="1" parent="1" source="9_ur9y1mSe7lT-CGNOKJ-58" target="9_ur9y1mSe7lT-CGNOKJ-54">
          <mxGeometry width="50" height="50" relative="1" as="geometry">
            <mxPoint x="1030" y="660" as="sourcePoint" />
            <mxPoint x="1070" y="790" as="targetPoint" />
          </mxGeometry>
        </mxCell>
        <mxCell id="u0D0l31gaYsdRfmlkiBU-16" value="" style="endArrow=none;html=1;rounded=0;entryX=0;entryY=0.5;entryDx=0;entryDy=0;exitX=1;exitY=1;exitDx=0;exitDy=0;" edge="1" parent="1" source="9_ur9y1mSe7lT-CGNOKJ-56" target="9_ur9y1mSe7lT-CGNOKJ-54">
          <mxGeometry width="50" height="50" relative="1" as="geometry">
            <mxPoint x="830" y="750" as="sourcePoint" />
            <mxPoint x="880" y="700" as="targetPoint" />
          </mxGeometry>
        </mxCell>
        <mxCell id="u0D0l31gaYsdRfmlkiBU-17" value="" style="endArrow=none;html=1;rounded=0;entryX=0;entryY=0.5;entryDx=0;entryDy=0;exitX=1;exitY=0.75;exitDx=0;exitDy=0;" edge="1" parent="1" source="9_ur9y1mSe7lT-CGNOKJ-54" target="9_ur9y1mSe7lT-CGNOKJ-61">
          <mxGeometry width="50" height="50" relative="1" as="geometry">
            <mxPoint x="830" y="750" as="sourcePoint" />
            <mxPoint x="880" y="700" as="targetPoint" />
          </mxGeometry>
        </mxCell>
        <mxCell id="u0D0l31gaYsdRfmlkiBU-18" value="has" style="rhombus;whiteSpace=wrap;html=1;" vertex="1" parent="1">
          <mxGeometry x="845" y="740" width="55" height="60" as="geometry" />
        </mxCell>
        <mxCell id="u0D0l31gaYsdRfmlkiBU-19" value="" style="endArrow=none;html=1;rounded=0;entryX=0;entryY=0.5;entryDx=0;entryDy=0;" edge="1" parent="1" target="u0D0l31gaYsdRfmlkiBU-18">
          <mxGeometry width="50" height="50" relative="1" as="geometry">
            <mxPoint x="740" y="770" as="sourcePoint" />
            <mxPoint x="880" y="700" as="targetPoint" />
          </mxGeometry>
        </mxCell>
        <mxCell id="u0D0l31gaYsdRfmlkiBU-20" value="" style="endArrow=none;html=1;rounded=0;entryX=1;entryY=1;entryDx=0;entryDy=0;" edge="1" parent="1" target="9_ur9y1mSe7lT-CGNOKJ-1">
          <mxGeometry width="50" height="50" relative="1" as="geometry">
            <mxPoint x="740" y="770" as="sourcePoint" />
            <mxPoint x="880" y="700" as="targetPoint" />
          </mxGeometry>
        </mxCell>
        <mxCell id="u0D0l31gaYsdRfmlkiBU-21" value="" style="endArrow=none;html=1;rounded=0;exitX=1;exitY=0.5;exitDx=0;exitDy=0;" edge="1" parent="1" source="u0D0l31gaYsdRfmlkiBU-18">
          <mxGeometry width="50" height="50" relative="1" as="geometry">
            <mxPoint x="940" y="780" as="sourcePoint" />
            <mxPoint x="1060" y="770" as="targetPoint" />
          </mxGeometry>
        </mxCell>
        <mxCell id="u0D0l31gaYsdRfmlkiBU-23" value="" style="endArrow=none;html=1;rounded=0;" edge="1" parent="1">
          <mxGeometry width="50" height="50" relative="1" as="geometry">
            <mxPoint x="1060" y="770" as="sourcePoint" />
            <mxPoint x="1060" y="720" as="targetPoint" />
          </mxGeometry>
        </mxCell>
        <mxCell id="u0D0l31gaYsdRfmlkiBU-24" value="1" style="text;html=1;align=center;verticalAlign=middle;resizable=0;points=[];autosize=1;strokeColor=none;fillColor=none;" vertex="1" parent="1">
          <mxGeometry x="734.98" y="720" width="30" height="30" as="geometry" />
        </mxCell>
        <mxCell id="u0D0l31gaYsdRfmlkiBU-26" value="M" style="text;html=1;align=center;verticalAlign=middle;resizable=0;points=[];autosize=1;strokeColor=none;fillColor=none;" vertex="1" parent="1">
          <mxGeometry x="1060" y="720" width="30" height="30" as="geometry" />
        </mxCell>
        <mxCell id="u0D0l31gaYsdRfmlkiBU-27" value="Dignostic Test" style="rounded=0;whiteSpace=wrap;html=1;" vertex="1" parent="1">
          <mxGeometry x="320" y="755" width="90" height="30" as="geometry" />
        </mxCell>
        <mxCell id="u0D0l31gaYsdRfmlkiBU-28" value="test type" style="ellipse;whiteSpace=wrap;html=1;" vertex="1" parent="1">
          <mxGeometry x="170" y="690" width="90" height="45" as="geometry" />
        </mxCell>
        <mxCell id="u0D0l31gaYsdRfmlkiBU-29" value="&lt;u&gt;Test_ID&lt;/u&gt;" style="ellipse;whiteSpace=wrap;html=1;" vertex="1" parent="1">
          <mxGeometry x="300" y="678.75" width="90" height="52.5" as="geometry" />
        </mxCell>
        <mxCell id="u0D0l31gaYsdRfmlkiBU-30" value="Test Date" style="ellipse;whiteSpace=wrap;html=1;" vertex="1" parent="1">
          <mxGeometry x="90" y="760" width="100" height="35" as="geometry" />
        </mxCell>
        <mxCell id="u0D0l31gaYsdRfmlkiBU-31" value="Result" style="ellipse;whiteSpace=wrap;html=1;" vertex="1" parent="1">
          <mxGeometry x="170" y="800" width="100" height="40" as="geometry" />
        </mxCell>
        <mxCell id="u0D0l31gaYsdRfmlkiBU-32" value="" style="endArrow=none;html=1;rounded=0;exitX=0.5;exitY=1;exitDx=0;exitDy=0;entryX=0;entryY=0.5;entryDx=0;entryDy=0;" edge="1" parent="1" source="u0D0l31gaYsdRfmlkiBU-28" target="u0D0l31gaYsdRfmlkiBU-27">
          <mxGeometry width="50" height="50" relative="1" as="geometry">
            <mxPoint x="630" y="610" as="sourcePoint" />
            <mxPoint x="680" y="560" as="targetPoint" />
            <Array as="points">
              <mxPoint x="320" y="770" />
            </Array>
          </mxGeometry>
        </mxCell>
        <mxCell id="u0D0l31gaYsdRfmlkiBU-33" value="" style="endArrow=none;html=1;rounded=0;exitX=0.5;exitY=0;exitDx=0;exitDy=0;entryX=0.633;entryY=0.983;entryDx=0;entryDy=0;entryPerimeter=0;" edge="1" parent="1" source="u0D0l31gaYsdRfmlkiBU-27" target="u0D0l31gaYsdRfmlkiBU-29">
          <mxGeometry width="50" height="50" relative="1" as="geometry">
            <mxPoint x="630" y="610" as="sourcePoint" />
            <mxPoint x="680" y="560" as="targetPoint" />
          </mxGeometry>
        </mxCell>
        <mxCell id="u0D0l31gaYsdRfmlkiBU-34" value="" style="endArrow=none;html=1;rounded=0;exitX=1;exitY=0.5;exitDx=0;exitDy=0;entryX=0;entryY=0.75;entryDx=0;entryDy=0;" edge="1" parent="1" source="u0D0l31gaYsdRfmlkiBU-30" target="u0D0l31gaYsdRfmlkiBU-27">
          <mxGeometry width="50" height="50" relative="1" as="geometry">
            <mxPoint x="630" y="610" as="sourcePoint" />
            <mxPoint x="680" y="560" as="targetPoint" />
          </mxGeometry>
        </mxCell>
        <mxCell id="u0D0l31gaYsdRfmlkiBU-35" value="" style="endArrow=none;html=1;rounded=0;exitX=1;exitY=0;exitDx=0;exitDy=0;entryX=0.25;entryY=1;entryDx=0;entryDy=0;" edge="1" parent="1" source="u0D0l31gaYsdRfmlkiBU-31" target="u0D0l31gaYsdRfmlkiBU-27">
          <mxGeometry width="50" height="50" relative="1" as="geometry">
            <mxPoint x="630" y="610" as="sourcePoint" />
            <mxPoint x="680" y="560" as="targetPoint" />
          </mxGeometry>
        </mxCell>
        <mxCell id="u0D0l31gaYsdRfmlkiBU-36" value="has" style="rhombus;whiteSpace=wrap;html=1;" vertex="1" parent="1">
          <mxGeometry x="490" y="770" width="70" height="60" as="geometry" />
        </mxCell>
        <mxCell id="u0D0l31gaYsdRfmlkiBU-37" value="" style="endArrow=none;html=1;rounded=0;entryX=0;entryY=0.5;entryDx=0;entryDy=0;" edge="1" parent="1" target="u0D0l31gaYsdRfmlkiBU-36">
          <mxGeometry width="50" height="50" relative="1" as="geometry">
            <mxPoint x="370" y="800" as="sourcePoint" />
            <mxPoint x="680" y="560" as="targetPoint" />
          </mxGeometry>
        </mxCell>
        <mxCell id="u0D0l31gaYsdRfmlkiBU-38" value="" style="endArrow=none;html=1;rounded=0;" edge="1" parent="1">
          <mxGeometry width="50" height="50" relative="1" as="geometry">
            <mxPoint x="370" y="800" as="sourcePoint" />
            <mxPoint x="370" y="785" as="targetPoint" />
          </mxGeometry>
        </mxCell>
        <mxCell id="u0D0l31gaYsdRfmlkiBU-39" value="" style="endArrow=none;html=1;rounded=0;exitX=1;exitY=0.5;exitDx=0;exitDy=0;entryX=0;entryY=1;entryDx=0;entryDy=0;" edge="1" parent="1" source="u0D0l31gaYsdRfmlkiBU-36" target="9_ur9y1mSe7lT-CGNOKJ-1">
          <mxGeometry width="50" height="50" relative="1" as="geometry">
            <mxPoint x="630" y="610" as="sourcePoint" />
            <mxPoint x="680" y="560" as="targetPoint" />
          </mxGeometry>
        </mxCell>
        <mxCell id="u0D0l31gaYsdRfmlkiBU-40" value="1" style="text;html=1;align=center;verticalAlign=middle;resizable=0;points=[];autosize=1;strokeColor=none;fillColor=none;" vertex="1" parent="1">
          <mxGeometry x="620" y="710" width="30" height="30" as="geometry" />
        </mxCell>
        <mxCell id="u0D0l31gaYsdRfmlkiBU-41" value="M" style="text;html=1;align=center;verticalAlign=middle;resizable=0;points=[];autosize=1;strokeColor=none;fillColor=none;" vertex="1" parent="1">
          <mxGeometry x="360" y="800" width="30" height="30" as="geometry" />
        </mxCell>
        <mxCell id="u0D0l31gaYsdRfmlkiBU-42" value="Encounter Records" style="rounded=0;whiteSpace=wrap;html=1;" vertex="1" parent="1">
          <mxGeometry x="455" y="920" width="90" height="30" as="geometry" />
        </mxCell>
        <mxCell id="u0D0l31gaYsdRfmlkiBU-43" value="Discharged-Date" style="ellipse;whiteSpace=wrap;html=1;" vertex="1" parent="1">
          <mxGeometry x="435" y="1000" width="110" height="40" as="geometry" />
        </mxCell>
        <mxCell id="u0D0l31gaYsdRfmlkiBU-44" value="Admiission Date" style="ellipse;whiteSpace=wrap;html=1;" vertex="1" parent="1">
          <mxGeometry x="300" y="990" width="110" height="40" as="geometry" />
        </mxCell>
        <mxCell id="u0D0l31gaYsdRfmlkiBU-45" value="Appo Data" style="ellipse;whiteSpace=wrap;html=1;" vertex="1" parent="1">
          <mxGeometry x="305" y="920" width="100" height="40" as="geometry" />
        </mxCell>
        <mxCell id="u0D0l31gaYsdRfmlkiBU-46" value="&lt;u&gt;Encounter ID&lt;/u&gt;" style="ellipse;whiteSpace=wrap;html=1;" vertex="1" parent="1">
          <mxGeometry x="315" y="870" width="100" height="40" as="geometry" />
        </mxCell>
        <mxCell id="u0D0l31gaYsdRfmlkiBU-47" value="" style="endArrow=none;html=1;rounded=0;entryX=0;entryY=0.5;entryDx=0;entryDy=0;exitX=0.993;exitY=0.367;exitDx=0;exitDy=0;exitPerimeter=0;" edge="1" parent="1" source="u0D0l31gaYsdRfmlkiBU-45" target="u0D0l31gaYsdRfmlkiBU-42">
          <mxGeometry width="50" height="50" relative="1" as="geometry">
            <mxPoint x="405" y="940" as="sourcePoint" />
            <mxPoint x="455" y="890" as="targetPoint" />
          </mxGeometry>
        </mxCell>
        <mxCell id="u0D0l31gaYsdRfmlkiBU-48" value="" style="endArrow=none;html=1;rounded=0;entryX=0;entryY=1;entryDx=0;entryDy=0;" edge="1" parent="1" target="u0D0l31gaYsdRfmlkiBU-42">
          <mxGeometry width="50" height="50" relative="1" as="geometry">
            <mxPoint x="405" y="1000" as="sourcePoint" />
            <mxPoint x="455" y="950" as="targetPoint" />
          </mxGeometry>
        </mxCell>
        <mxCell id="u0D0l31gaYsdRfmlkiBU-49" value="" style="endArrow=none;html=1;rounded=0;entryX=0.5;entryY=1;entryDx=0;entryDy=0;exitX=0.5;exitY=0;exitDx=0;exitDy=0;" edge="1" parent="1" source="u0D0l31gaYsdRfmlkiBU-43" target="u0D0l31gaYsdRfmlkiBU-42">
          <mxGeometry width="50" height="50" relative="1" as="geometry">
            <mxPoint x="485" y="1000" as="sourcePoint" />
            <mxPoint x="535" y="950" as="targetPoint" />
          </mxGeometry>
        </mxCell>
        <mxCell id="u0D0l31gaYsdRfmlkiBU-52" value="" style="endArrow=none;html=1;rounded=0;exitX=0.968;exitY=0.7;exitDx=0;exitDy=0;exitPerimeter=0;entryX=0;entryY=0;entryDx=0;entryDy=0;" edge="1" parent="1" source="u0D0l31gaYsdRfmlkiBU-46" target="u0D0l31gaYsdRfmlkiBU-42">
          <mxGeometry width="50" height="50" relative="1" as="geometry">
            <mxPoint x="635" y="1040" as="sourcePoint" />
            <mxPoint x="685" y="990" as="targetPoint" />
          </mxGeometry>
        </mxCell>
        <mxCell id="u0D0l31gaYsdRfmlkiBU-53" value="has" style="rhombus;whiteSpace=wrap;html=1;" vertex="1" parent="1">
          <mxGeometry x="560" y="850" width="80" height="50" as="geometry" />
        </mxCell>
        <mxCell id="u0D0l31gaYsdRfmlkiBU-54" value="" style="endArrow=none;html=1;rounded=0;exitX=0.5;exitY=0;exitDx=0;exitDy=0;entryX=0.25;entryY=1;entryDx=0;entryDy=0;" edge="1" parent="1" source="u0D0l31gaYsdRfmlkiBU-53" target="9_ur9y1mSe7lT-CGNOKJ-1">
          <mxGeometry width="50" height="50" relative="1" as="geometry">
            <mxPoint x="410" y="850" as="sourcePoint" />
            <mxPoint x="460" y="800" as="targetPoint" />
          </mxGeometry>
        </mxCell>
        <mxCell id="u0D0l31gaYsdRfmlkiBU-57" value="1" style="edgeLabel;html=1;align=center;verticalAlign=middle;resizable=0;points=[];" vertex="1" connectable="0" parent="u0D0l31gaYsdRfmlkiBU-54">
          <mxGeometry x="0.8141" y="-4" relative="1" as="geometry">
            <mxPoint x="4" y="1" as="offset" />
          </mxGeometry>
        </mxCell>
        <mxCell id="u0D0l31gaYsdRfmlkiBU-55" value="" style="endArrow=none;html=1;rounded=0;exitX=1;exitY=0.5;exitDx=0;exitDy=0;" edge="1" parent="1" source="u0D0l31gaYsdRfmlkiBU-42">
          <mxGeometry width="50" height="50" relative="1" as="geometry">
            <mxPoint x="410" y="850" as="sourcePoint" />
            <mxPoint x="600" y="935" as="targetPoint" />
          </mxGeometry>
        </mxCell>
        <mxCell id="u0D0l31gaYsdRfmlkiBU-58" value="M" style="text;html=1;align=center;verticalAlign=middle;resizable=0;points=[];autosize=1;strokeColor=none;fillColor=none;" vertex="1" parent="1">
          <mxGeometry x="545" y="928" width="30" height="30" as="geometry" />
        </mxCell>
        <mxCell id="u0D0l31gaYsdRfmlkiBU-61" value="" style="endArrow=none;html=1;rounded=0;exitX=1;exitY=1;exitDx=0;exitDy=0;entryX=0;entryY=0.5;entryDx=0;entryDy=0;" edge="1" parent="1" source="9_ur9y1mSe7lT-CGNOKJ-72" target="9_ur9y1mSe7lT-CGNOKJ-78">
          <mxGeometry width="50" height="50" relative="1" as="geometry">
            <mxPoint x="834.98" y="1130" as="sourcePoint" />
            <mxPoint x="884.98" y="1080" as="targetPoint" />
          </mxGeometry>
        </mxCell>
        <mxCell id="u0D0l31gaYsdRfmlkiBU-62" value="" style="endArrow=none;html=1;rounded=0;exitX=0.25;exitY=1;exitDx=0;exitDy=0;entryX=0.5;entryY=0;entryDx=0;entryDy=0;" edge="1" parent="1" source="9_ur9y1mSe7lT-CGNOKJ-72" target="9_ur9y1mSe7lT-CGNOKJ-76">
          <mxGeometry width="50" height="50" relative="1" as="geometry">
            <mxPoint x="759.87" y="1090" as="sourcePoint" />
            <mxPoint x="809.87" y="1040" as="targetPoint" />
          </mxGeometry>
        </mxCell>
        <mxCell id="u0D0l31gaYsdRfmlkiBU-63" value="" style="endArrow=none;html=1;rounded=0;entryX=0;entryY=0.5;entryDx=0;entryDy=0;exitX=1;exitY=0.25;exitDx=0;exitDy=0;" edge="1" parent="1" source="9_ur9y1mSe7lT-CGNOKJ-72" target="9_ur9y1mSe7lT-CGNOKJ-77">
          <mxGeometry width="50" height="50" relative="1" as="geometry">
            <mxPoint x="824.98" y="1070" as="sourcePoint" />
            <mxPoint x="874.98" y="1020" as="targetPoint" />
          </mxGeometry>
        </mxCell>
        <mxCell id="u0D0l31gaYsdRfmlkiBU-67" value="" style="endArrow=none;html=1;rounded=0;entryX=1;entryY=0.5;entryDx=0;entryDy=0;exitX=0;exitY=0.5;exitDx=0;exitDy=0;" edge="1" parent="1" source="9_ur9y1mSe7lT-CGNOKJ-72" target="9_ur9y1mSe7lT-CGNOKJ-74">
          <mxGeometry width="50" height="50" relative="1" as="geometry">
            <mxPoint x="669.87" y="1120" as="sourcePoint" />
            <mxPoint x="715.0100000000003" y="1039.88" as="targetPoint" />
          </mxGeometry>
        </mxCell>
        <mxCell id="u0D0l31gaYsdRfmlkiBU-68" value="" style="endArrow=none;html=1;rounded=0;entryX=0.75;entryY=1;entryDx=0;entryDy=0;" edge="1" parent="1" target="9_ur9y1mSe7lT-CGNOKJ-72">
          <mxGeometry width="50" height="50" relative="1" as="geometry">
            <mxPoint x="813" y="1150" as="sourcePoint" />
            <mxPoint x="719.87" y="930" as="targetPoint" />
          </mxGeometry>
        </mxCell>
        <mxCell id="u0D0l31gaYsdRfmlkiBU-69" value="has" style="rhombus;whiteSpace=wrap;html=1;" vertex="1" parent="1">
          <mxGeometry x="660" y="930" width="80" height="40" as="geometry" />
        </mxCell>
        <mxCell id="u0D0l31gaYsdRfmlkiBU-70" value="" style="endArrow=none;html=1;rounded=0;exitX=0.5;exitY=0;exitDx=0;exitDy=0;entryX=0.5;entryY=1;entryDx=0;entryDy=0;" edge="1" parent="1" source="u0D0l31gaYsdRfmlkiBU-69" target="9_ur9y1mSe7lT-CGNOKJ-1">
          <mxGeometry width="50" height="50" relative="1" as="geometry">
            <mxPoint x="590" y="1160" as="sourcePoint" />
            <mxPoint x="680" y="860" as="targetPoint" />
          </mxGeometry>
        </mxCell>
        <mxCell id="u0D0l31gaYsdRfmlkiBU-71" value="" style="endArrow=none;html=1;rounded=0;entryX=0.5;entryY=1;entryDx=0;entryDy=0;exitX=0;exitY=0;exitDx=0;exitDy=0;" edge="1" parent="1" source="9_ur9y1mSe7lT-CGNOKJ-72" target="u0D0l31gaYsdRfmlkiBU-69">
          <mxGeometry width="50" height="50" relative="1" as="geometry">
            <mxPoint x="590" y="1160" as="sourcePoint" />
            <mxPoint x="640" y="1110" as="targetPoint" />
          </mxGeometry>
        </mxCell>
        <mxCell id="u0D0l31gaYsdRfmlkiBU-72" value="" style="endArrow=none;html=1;rounded=0;entryX=0;entryY=1;entryDx=0;entryDy=0;" edge="1" parent="1" target="9_ur9y1mSe7lT-CGNOKJ-31">
          <mxGeometry width="50" height="50" relative="1" as="geometry">
            <mxPoint x="1110" y="1075" as="sourcePoint" />
            <mxPoint x="1160" y="1025" as="targetPoint" />
          </mxGeometry>
        </mxCell>
        <mxCell id="u0D0l31gaYsdRfmlkiBU-73" value="Writes" style="rhombus;whiteSpace=wrap;html=1;" vertex="1" parent="1">
          <mxGeometry x="905" y="1010" width="75" height="45" as="geometry" />
        </mxCell>
        <mxCell id="u0D0l31gaYsdRfmlkiBU-74" value="" style="endArrow=none;html=1;rounded=0;exitX=1;exitY=0.25;exitDx=0;exitDy=0;entryX=0.033;entryY=0.233;entryDx=0;entryDy=0;entryPerimeter=0;" edge="1" parent="1" source="9_ur9y1mSe7lT-CGNOKJ-31" target="9_ur9y1mSe7lT-CGNOKJ-37">
          <mxGeometry width="50" height="50" relative="1" as="geometry">
            <mxPoint x="1260" y="1015" as="sourcePoint" />
            <mxPoint x="1310" y="965" as="targetPoint" />
          </mxGeometry>
        </mxCell>
        <mxCell id="u0D0l31gaYsdRfmlkiBU-75" value="" style="endArrow=none;html=1;rounded=0;entryX=0.875;entryY=1.025;entryDx=0;entryDy=0;entryPerimeter=0;exitX=0.067;exitY=0.133;exitDx=0;exitDy=0;exitPerimeter=0;" edge="1" parent="1" source="9_ur9y1mSe7lT-CGNOKJ-36" target="9_ur9y1mSe7lT-CGNOKJ-31">
          <mxGeometry width="50" height="50" relative="1" as="geometry">
            <mxPoint x="1230" y="1100" as="sourcePoint" />
            <mxPoint x="1280" y="1050" as="targetPoint" />
          </mxGeometry>
        </mxCell>
        <mxCell id="u0D0l31gaYsdRfmlkiBU-76" value="" style="endArrow=none;html=1;rounded=0;exitX=0.5;exitY=0;exitDx=0;exitDy=0;entryX=0.425;entryY=0.975;entryDx=0;entryDy=0;entryPerimeter=0;" edge="1" parent="1" source="9_ur9y1mSe7lT-CGNOKJ-34" target="9_ur9y1mSe7lT-CGNOKJ-31">
          <mxGeometry width="50" height="50" relative="1" as="geometry">
            <mxPoint x="1145" y="1065" as="sourcePoint" />
            <mxPoint x="1180" y="1060" as="targetPoint" />
          </mxGeometry>
        </mxCell>
        <mxCell id="u0D0l31gaYsdRfmlkiBU-77" value="" style="endArrow=none;html=1;rounded=0;entryX=0;entryY=0.5;entryDx=0;entryDy=0;exitX=1;exitY=0;exitDx=0;exitDy=0;" edge="1" parent="1" source="9_ur9y1mSe7lT-CGNOKJ-72" target="u0D0l31gaYsdRfmlkiBU-73">
          <mxGeometry width="50" height="50" relative="1" as="geometry">
            <mxPoint x="830" y="1070" as="sourcePoint" />
            <mxPoint x="910" y="1010" as="targetPoint" />
          </mxGeometry>
        </mxCell>
        <mxCell id="u0D0l31gaYsdRfmlkiBU-78" value="" style="endArrow=none;html=1;rounded=0;exitX=1;exitY=0.5;exitDx=0;exitDy=0;entryX=0;entryY=0.5;entryDx=0;entryDy=0;" edge="1" parent="1" source="u0D0l31gaYsdRfmlkiBU-73" target="9_ur9y1mSe7lT-CGNOKJ-31">
          <mxGeometry width="50" height="50" relative="1" as="geometry">
            <mxPoint x="1020" y="950" as="sourcePoint" />
            <mxPoint x="1070" y="900" as="targetPoint" />
          </mxGeometry>
        </mxCell>
        <mxCell id="u0D0l31gaYsdRfmlkiBU-79" value="" style="endArrow=none;html=1;rounded=0;entryX=0.5;entryY=1;entryDx=0;entryDy=0;" edge="1" parent="1" target="u0D0l31gaYsdRfmlkiBU-53">
          <mxGeometry width="50" height="50" relative="1" as="geometry">
            <mxPoint x="600" y="940" as="sourcePoint" />
            <mxPoint x="780" y="900" as="targetPoint" />
          </mxGeometry>
        </mxCell>
        <mxCell id="u0D0l31gaYsdRfmlkiBU-80" value="Procedures &amp;amp;&amp;nbsp;&lt;div&gt;Surgeries&lt;/div&gt;" style="rounded=0;whiteSpace=wrap;html=1;" vertex="1" parent="1">
          <mxGeometry x="1205" y="820" width="100" height="30" as="geometry" />
        </mxCell>
        <mxCell id="u0D0l31gaYsdRfmlkiBU-81" value="Notes" style="ellipse;whiteSpace=wrap;html=1;" vertex="1" parent="1">
          <mxGeometry x="1330" y="840" width="80" height="40" as="geometry" />
        </mxCell>
        <mxCell id="u0D0l31gaYsdRfmlkiBU-82" value="Date" style="ellipse;whiteSpace=wrap;html=1;" vertex="1" parent="1">
          <mxGeometry x="1340" y="780" width="80" height="40" as="geometry" />
        </mxCell>
        <mxCell id="u0D0l31gaYsdRfmlkiBU-83" value="Pro Name" style="ellipse;whiteSpace=wrap;html=1;" vertex="1" parent="1">
          <mxGeometry x="1245" y="760" width="75" height="35" as="geometry" />
        </mxCell>
        <mxCell id="u0D0l31gaYsdRfmlkiBU-84" value="&lt;u&gt;Pro_ID&lt;/u&gt;" style="ellipse;whiteSpace=wrap;html=1;" vertex="1" parent="1">
          <mxGeometry x="1140" y="760" width="70" height="30" as="geometry" />
        </mxCell>
        <mxCell id="u0D0l31gaYsdRfmlkiBU-85" value="" style="endArrow=none;html=1;rounded=0;entryX=0.743;entryY=0.967;entryDx=0;entryDy=0;entryPerimeter=0;exitX=0;exitY=0;exitDx=0;exitDy=0;" edge="1" parent="1" source="u0D0l31gaYsdRfmlkiBU-80" target="u0D0l31gaYsdRfmlkiBU-84">
          <mxGeometry width="50" height="50" relative="1" as="geometry">
            <mxPoint x="1180" y="960" as="sourcePoint" />
            <mxPoint x="1230" y="910" as="targetPoint" />
          </mxGeometry>
        </mxCell>
        <mxCell id="u0D0l31gaYsdRfmlkiBU-86" value="" style="endArrow=none;html=1;rounded=0;exitX=1;exitY=0;exitDx=0;exitDy=0;" edge="1" parent="1" source="u0D0l31gaYsdRfmlkiBU-80">
          <mxGeometry width="50" height="50" relative="1" as="geometry">
            <mxPoint x="1290" y="850" as="sourcePoint" />
            <mxPoint x="1340" y="800" as="targetPoint" />
          </mxGeometry>
        </mxCell>
        <mxCell id="u0D0l31gaYsdRfmlkiBU-87" value="" style="endArrow=none;html=1;rounded=0;exitX=0.6;exitY=-0.067;exitDx=0;exitDy=0;exitPerimeter=0;" edge="1" parent="1" source="u0D0l31gaYsdRfmlkiBU-80">
          <mxGeometry width="50" height="50" relative="1" as="geometry">
            <mxPoint x="1225" y="845" as="sourcePoint" />
            <mxPoint x="1275" y="795" as="targetPoint" />
          </mxGeometry>
        </mxCell>
        <mxCell id="u0D0l31gaYsdRfmlkiBU-88" value="" style="endArrow=none;html=1;rounded=0;exitX=1;exitY=1;exitDx=0;exitDy=0;entryX=0;entryY=0.5;entryDx=0;entryDy=0;" edge="1" parent="1" source="u0D0l31gaYsdRfmlkiBU-80" target="u0D0l31gaYsdRfmlkiBU-81">
          <mxGeometry width="50" height="50" relative="1" as="geometry">
            <mxPoint x="1180" y="960" as="sourcePoint" />
            <mxPoint x="1230" y="910" as="targetPoint" />
          </mxGeometry>
        </mxCell>
        <mxCell id="u0D0l31gaYsdRfmlkiBU-89" value="Perform" style="rhombus;whiteSpace=wrap;html=1;" vertex="1" parent="1">
          <mxGeometry x="1210" y="915" width="80" height="50" as="geometry" />
        </mxCell>
        <mxCell id="u0D0l31gaYsdRfmlkiBU-90" value="" style="endArrow=none;html=1;rounded=0;exitX=1;exitY=0;exitDx=0;exitDy=0;entryX=0.5;entryY=1;entryDx=0;entryDy=0;" edge="1" parent="1" source="9_ur9y1mSe7lT-CGNOKJ-31" target="u0D0l31gaYsdRfmlkiBU-89">
          <mxGeometry width="50" height="50" relative="1" as="geometry">
            <mxPoint x="1100" y="1030" as="sourcePoint" />
            <mxPoint x="1150" y="980" as="targetPoint" />
          </mxGeometry>
        </mxCell>
        <mxCell id="u0D0l31gaYsdRfmlkiBU-91" value="" style="endArrow=none;html=1;rounded=0;exitX=0.5;exitY=0;exitDx=0;exitDy=0;entryX=0.5;entryY=1;entryDx=0;entryDy=0;" edge="1" parent="1" source="u0D0l31gaYsdRfmlkiBU-89" target="u0D0l31gaYsdRfmlkiBU-80">
          <mxGeometry width="50" height="50" relative="1" as="geometry">
            <mxPoint x="1100" y="1030" as="sourcePoint" />
            <mxPoint x="1150" y="980" as="targetPoint" />
          </mxGeometry>
        </mxCell>
        <mxCell id="u0D0l31gaYsdRfmlkiBU-92" value="Undergoes" style="rhombus;whiteSpace=wrap;html=1;" vertex="1" parent="1">
          <mxGeometry x="860" y="840" width="80" height="50" as="geometry" />
        </mxCell>
        <mxCell id="u0D0l31gaYsdRfmlkiBU-93" value="" style="endArrow=none;html=1;rounded=0;entryX=0;entryY=0.5;entryDx=0;entryDy=0;" edge="1" parent="1" target="u0D0l31gaYsdRfmlkiBU-92">
          <mxGeometry width="50" height="50" relative="1" as="geometry">
            <mxPoint x="720" y="865" as="sourcePoint" />
            <mxPoint x="870" y="950" as="targetPoint" />
            <Array as="points" />
          </mxGeometry>
        </mxCell>
        <mxCell id="u0D0l31gaYsdRfmlkiBU-94" value="" style="endArrow=none;html=1;rounded=0;entryX=0.75;entryY=1;entryDx=0;entryDy=0;" edge="1" parent="1" target="9_ur9y1mSe7lT-CGNOKJ-1">
          <mxGeometry width="50" height="50" relative="1" as="geometry">
            <mxPoint x="720" y="870" as="sourcePoint" />
            <mxPoint x="860" y="920" as="targetPoint" />
          </mxGeometry>
        </mxCell>
        <mxCell id="u0D0l31gaYsdRfmlkiBU-95" value="" style="endArrow=none;html=1;rounded=0;exitX=1;exitY=0.5;exitDx=0;exitDy=0;entryX=0;entryY=0.75;entryDx=0;entryDy=0;" edge="1" parent="1" source="u0D0l31gaYsdRfmlkiBU-92" target="u0D0l31gaYsdRfmlkiBU-80">
          <mxGeometry width="50" height="50" relative="1" as="geometry">
            <mxPoint x="820" y="1020" as="sourcePoint" />
            <mxPoint x="1200" y="850" as="targetPoint" />
          </mxGeometry>
        </mxCell>
        <mxCell id="u0D0l31gaYsdRfmlkiBU-96" value="1" style="text;html=1;align=center;verticalAlign=middle;resizable=0;points=[];autosize=1;strokeColor=none;fillColor=none;" vertex="1" parent="1">
          <mxGeometry x="1205" y="990" width="30" height="30" as="geometry" />
        </mxCell>
        <mxCell id="u0D0l31gaYsdRfmlkiBU-97" value="M" style="text;html=1;align=center;verticalAlign=middle;resizable=0;points=[];autosize=1;strokeColor=none;fillColor=none;" vertex="1" parent="1">
          <mxGeometry x="1230" y="860" width="30" height="30" as="geometry" />
        </mxCell>
        <mxCell id="u0D0l31gaYsdRfmlkiBU-98" value="1" style="text;html=1;align=center;verticalAlign=middle;resizable=0;points=[];autosize=1;strokeColor=none;fillColor=none;" vertex="1" parent="1">
          <mxGeometry x="690" y="720" width="30" height="30" as="geometry" />
        </mxCell>
        <mxCell id="u0D0l31gaYsdRfmlkiBU-100" value="M" style="text;html=1;align=center;verticalAlign=middle;resizable=0;points=[];autosize=1;strokeColor=none;fillColor=none;" vertex="1" parent="1">
          <mxGeometry x="1170" y="820" width="30" height="30" as="geometry" />
        </mxCell>
        <mxCell id="u0D0l31gaYsdRfmlkiBU-101" value="M" style="text;html=1;align=center;verticalAlign=middle;resizable=0;points=[];autosize=1;strokeColor=none;fillColor=none;" vertex="1" parent="1">
          <mxGeometry x="725" y="1028" width="30" height="30" as="geometry" />
        </mxCell>
        <mxCell id="u0D0l31gaYsdRfmlkiBU-102" value="1" style="text;html=1;align=center;verticalAlign=middle;resizable=0;points=[];autosize=1;strokeColor=none;fillColor=none;" vertex="1" parent="1">
          <mxGeometry x="1105" y="1008" width="30" height="30" as="geometry" />
        </mxCell>
        <mxCell id="u0D0l31gaYsdRfmlkiBU-103" value="M" style="text;html=1;align=center;verticalAlign=middle;resizable=0;points=[];autosize=1;strokeColor=none;fillColor=none;" vertex="1" parent="1">
          <mxGeometry x="820" y="1033" width="30" height="30" as="geometry" />
        </mxCell>
      </root>
    </mxGraphModel>
  </diagram>
</mxfile>
